<svg xmlns="http://www.w3.org/2000/svg" viewBox="0 0 688 1020" width="688" height="1020" font-family="Georgia, 'Iowan Old Style', serif">
<title>Washakie Pass to Cirque of the Towers Loop</title>
<defs>
  <marker id="a" viewBox="0 0 10 10" refX="6" refY="5" markerWidth="5" markerHeight="5" orient="auto-start-reverse">
    <path d="M0 1 L8 5 L0 9 Z" fill="#A63A22"/>
  </marker>
</defs>
<rect width="688" height="1020" fill="#FBF8F1"/>
<g stroke="#DCD3BF" stroke-width="0.6" fill="none">
<line x1="64" y1="836.4" x2="624" y2="836.4"/>
<line x1="64" y1="584.2" x2="624" y2="584.2"/>
<line x1="64" y1="331.9" x2="624" y2="331.9"/>
<line x1="64" y1="79.6" x2="624" y2="79.6"/>
<line x1="101.8" y1="64" x2="101.8" y2="956"/>
<line x1="287.1" y1="64" x2="287.1" y2="956"/>
<line x1="472.4" y1="64" x2="472.4" y2="956"/>
</g>
<g font-size="10" fill="#A8987A" font-family="ui-monospace, Menlo, monospace" letter-spacing="0.5">
<text x="56" y="839.4" text-anchor="end">42.70&#176;N</text>
<text x="56" y="587.2" text-anchor="end">42.75&#176;N</text>
<text x="56" y="334.9" text-anchor="end">42.80&#176;N</text>
<text x="56" y="82.6" text-anchor="end">42.85&#176;N</text>
<text x="101.8" y="976" text-anchor="middle">109.30&#176;W</text>
<text x="287.1" y="976" text-anchor="middle">109.25&#176;W</text>
<text x="472.4" y="976" text-anchor="middle">109.20&#176;W</text>
</g>
<rect x="64" y="64" width="560" height="892" fill="none" stroke="#23201A" stroke-width="1"/>
<path d="M 210.17 895.20 L 210.99 894.35 L 211.10 892.48 L 212.32 890.16 L 212.51 889.20 L 213.62 886.73 L 213.88 883.85 L 214.47 881.23 L 215.58 878.30 L 216.32 877.29 L 218.18 873.31 L 219.25 870.18 L 219.73 867.76 L 220.66 865.29 L 223.70 860.49 L 224.18 860.14 L 224.74 859.13 L 225.33 858.68 L 226.07 855.90 L 226.22 853.58 L 225.25 851.56 L 225.11 850.40 L 224.29 848.79 L 224.29 847.68 L 224.74 845.91 L 224.40 845.31 L 224.33 844.30 L 224.77 843.74 L 224.92 842.63 L 226.00 839.40 L 227.29 838.34 L 227.81 837.03 L 228.63 836.12 L 229.11 833.55 L 229.55 832.74 L 229.41 832.19 L 231.18 828.15 L 230.89 827.50 L 230.93 826.99 L 231.33 826.39 L 232.59 825.83 L 232.67 824.92 L 231.30 822.40 L 230.59 821.85 L 230.67 821.04 L 231.18 820.54 L 231.11 819.83 L 228.78 815.79 L 228.66 814.78 L 228.11 813.93 L 227.48 809.94 L 226.96 809.33 L 226.37 808.07 L 224.96 807.06 L 224.25 806.81 L 223.81 806.91 L 218.99 803.73 L 217.99 803.38 L 217.14 803.38 L 216.95 803.23 L 217.14 802.78 L 216.95 802.22 L 216.03 802.78 L 215.62 802.52 L 215.25 802.57 L 214.14 801.01 L 213.88 800.30 L 213.95 799.35 L 214.36 798.18 L 215.21 796.77 L 215.51 795.86 L 215.58 793.34 L 215.17 791.93 L 214.66 791.37 L 214.62 790.62 L 215.10 789.46 L 215.43 786.53 L 216.25 783.60 L 216.51 782.19 L 216.29 781.13 L 216.55 780.43 L 215.95 780.78 L 215.47 781.84 L 214.28 781.69 L 213.95 781.28 L 213.91 780.58 L 214.14 780.07 L 213.43 778.26 L 213.28 775.78 L 214.36 773.87 L 216.58 770.89 L 217.14 769.83 L 216.73 768.57 L 216.88 767.61 L 216.62 765.74 L 216.32 764.99 L 215.43 764.18 L 214.99 762.11 L 214.06 761.05 L 213.88 760.55 L 214.03 759.84 L 214.84 758.73 L 214.62 757.02 L 215.03 755.45 L 214.91 755.00 L 214.32 753.94 L 213.69 753.48 L 212.14 753.08 L 210.99 750.66 L 210.36 748.34 L 210.65 745.31 L 211.28 743.49 L 210.87 741.02 L 210.80 738.45 L 208.17 734.97 L 205.87 733.91 L 204.32 731.74 L 203.68 731.39 L 202.68 731.39 L 202.17 730.73 L 201.83 729.97 L 201.98 729.01 L 201.76 727.25 L 201.54 726.54 L 201.05 725.99 L 200.91 724.88 L 200.39 724.32 L 200.24 723.62 L 199.31 723.06 L 196.83 718.97 L 194.75 716.45 L 194.01 713.63 L 193.72 713.22 L 192.71 712.87 L 192.38 712.52 L 192.01 710.25 L 191.20 709.14 L 190.60 707.72 L 190.64 705.55 L 190.31 703.74 L 190.42 701.82 L 189.56 698.84 L 189.45 695.67 L 189.01 694.05 L 189.12 692.28 L 188.23 687.69 L 186.64 683.46 L 184.15 679.72 L 181.78 674.93 L 180.97 672.20 L 180.82 669.78 L 180.00 667.46 L 177.56 664.49 L 177.19 664.23 L 176.33 664.13 L 175.78 663.63 L 172.92 662.77 L 172.00 661.41 L 171.44 661.11 L 170.89 661.16 L 170.51 660.05 L 169.74 659.09 L 169.48 658.43 L 169.59 656.67 L 169.40 655.96 L 167.92 654.04 L 167.92 653.03 L 168.29 651.37 L 166.92 650.51 L 166.14 649.65 L 163.32 649.20 L 162.18 649.45 L 161.62 649.00 L 161.21 647.74 L 159.99 646.42 L 160.17 645.21 L 159.88 644.35 L 158.88 643.70 L 158.32 643.04 L 157.40 640.97 L 157.25 639.51 L 157.54 638.81 L 157.51 635.42 L 157.21 634.77 L 156.69 634.31 L 156.36 633.20 L 156.88 631.64 L 158.06 629.22 L 158.77 628.36 L 159.51 627.86 L 160.95 625.94 L 160.58 624.12 L 159.99 623.06 L 159.32 622.46 L 159.47 622.00 L 160.58 620.84 L 160.43 618.78 L 160.80 616.25 L 162.69 613.12 L 162.84 612.42 L 162.95 610.45 L 162.66 609.09 L 162.84 608.13 L 162.62 606.52 L 162.47 599.60 L 162.06 597.89 L 161.88 595.67 L 160.99 593.35 L 160.99 591.88 L 160.77 590.98 L 159.77 588.40 L 158.62 584.17 L 158.73 581.84 L 158.10 578.16 L 157.99 575.54 L 158.91 573.97 L 159.03 572.31 L 158.51 571.60 L 157.54 571.20 L 156.28 571.05 L 155.50 570.54 L 154.54 569.28 L 153.99 567.52 L 153.10 566.10 L 150.91 564.44 L 150.65 563.73 L 149.58 562.52 L 149.28 561.26 L 149.35 560.55 L 147.94 558.03 L 148.13 556.72 L 147.94 554.55 L 148.13 551.22 L 148.28 550.26 L 148.91 549.00 L 149.09 546.98 L 148.95 546.43 L 148.46 545.97 L 148.54 543.90 L 148.35 543.00 L 150.35 539.67 L 150.54 538.86 L 148.98 538.91 L 148.87 537.70 L 147.80 536.39 L 147.61 535.43 L 147.24 534.87 L 147.31 534.17 L 147.09 533.61 L 145.54 532.40 L 145.16 531.39 L 143.39 529.78 L 143.61 528.92 L 143.24 527.61 L 144.76 526.40 L 145.50 525.44 L 146.35 524.98 L 146.61 524.18 L 144.79 523.27 L 144.57 522.87 L 144.46 522.16 L 145.02 520.80 L 144.31 519.59 L 144.13 517.21 L 143.50 515.85 L 143.31 514.59 L 142.90 513.99 L 142.01 513.38 L 139.68 512.37 L 138.98 512.27 L 135.71 506.87 L 134.57 501.88 L 133.19 500.26 L 132.27 498.24 L 132.16 496.73 L 131.67 494.86 L 131.04 487.50 L 130.64 486.89 L 129.75 483.16 L 128.82 481.80 L 128.34 480.64 L 127.00 478.82 L 125.49 478.27 L 124.45 477.61 L 123.19 477.36 L 120.93 475.34 L 119.81 474.63 L 119.07 473.37 L 119.04 472.16 L 118.59 470.90 L 117.04 468.33 L 116.92 466.11 L 114.70 462.93 L 114.33 460.91 L 114.00 460.15 L 110.66 455.01 L 108.29 450.62 L 108.44 449.20 L 110.18 446.88 L 110.66 444.56 L 111.51 442.49 L 112.07 442.65 L 113.66 444.01 L 115.33 444.26 L 116.55 444.01 L 117.78 443.35 L 119.85 441.08 L 120.70 440.58 L 121.30 439.37 L 120.59 435.13 L 120.67 433.97 L 120.30 433.21 L 120.44 432.00 L 120.30 430.54 L 119.67 427.46 L 118.93 425.90 L 118.15 419.24 L 117.67 417.62 L 117.11 412.32 L 116.66 410.66 L 116.96 407.63 L 116.85 406.67 L 116.33 405.77 L 115.77 403.70 L 115.18 400.01 L 115.14 394.06 L 115.96 389.52 L 115.70 387.96 L 116.78 386.34 L 117.55 383.16 L 118.63 381.09 L 118.48 380.64 L 118.63 379.73 L 119.74 376.96 L 121.41 374.89 L 122.63 371.76 L 125.04 367.62 L 127.49 364.34 L 129.08 363.13 L 132.93 359.05 L 135.97 356.32 L 138.05 353.85 L 139.57 350.72 L 141.31 348.70 L 141.72 347.49 L 143.09 345.63 L 143.20 344.72 L 143.98 343.30 L 143.20 338.87 L 143.65 337.15 L 144.65 336.09 L 144.79 334.98 L 144.57 333.37 L 144.91 332.31 L 144.61 331.90 L 144.31 331.85 L 144.16 331.20 L 143.53 330.84 L 143.31 329.88 L 143.90 329.13 L 144.16 328.07 L 144.05 327.31 L 143.24 325.34 L 144.09 321.81 L 143.53 321.46 L 143.57 321.00 L 142.72 320.35 L 142.13 320.30 L 141.35 320.65 L 141.16 320.25 L 141.53 319.39 L 141.27 318.23 L 141.38 317.52 L 140.83 316.36 L 139.83 313.03 L 140.12 311.52 L 139.90 310.61 L 140.24 307.89 L 139.98 306.47 L 138.86 304.31 L 139.01 303.09 L 137.16 298.50 L 137.23 298.05 L 136.68 297.04 L 136.53 296.13 L 135.94 295.02 L 135.23 292.55 L 135.27 291.94 L 134.60 290.43 L 134.49 288.87 L 133.94 287.50 L 133.31 286.70 L 132.01 282.96 L 131.08 281.30 L 130.38 278.42 L 130.01 277.82 L 129.45 275.75 L 129.04 275.35 L 129.45 275.75 L 130.01 277.82 L 130.38 278.42 L 131.08 281.30 L 132.01 282.96 L 133.31 286.70 L 133.94 287.50 L 134.49 288.87 L 134.60 290.43 L 135.20 291.84 L 135.57 291.39 L 136.68 287.81 L 136.68 287.10 L 136.97 286.75 L 137.01 284.78 L 137.46 284.12 L 138.16 283.72 L 140.64 283.82 L 142.68 283.01 L 143.90 282.86 L 144.53 281.95 L 147.05 280.24 L 148.83 280.54 L 150.06 279.94 L 152.69 280.34 L 155.99 282.36 L 158.17 283.01 L 160.73 283.47 L 163.03 284.43 L 164.44 284.17 L 166.99 284.78 L 168.07 284.78 L 168.92 284.98 L 169.22 285.39 L 170.63 285.94 L 172.89 286.39 L 175.96 286.45 L 177.33 287.15 L 178.71 286.19 L 181.78 285.39 L 184.52 285.69 L 185.38 284.78 L 188.71 282.91 L 191.12 282.46 L 192.12 281.25 L 194.09 280.64 L 195.61 279.79 L 196.50 278.88 L 198.16 278.93 L 199.02 278.42 L 200.35 276.05 L 201.20 275.19 L 204.72 273.18 L 204.65 272.47 L 204.91 271.81 L 207.17 269.04 L 209.17 268.33 L 212.14 266.26 L 212.84 265.56 L 215.14 262.13 L 215.66 262.03 L 215.73 261.77 L 217.06 261.93 L 217.77 261.77 L 218.77 261.12 L 219.58 260.01 L 219.81 258.80 L 220.51 257.94 L 221.47 257.43 L 222.03 257.38 L 224.25 255.57 L 225.96 253.40 L 227.89 250.22 L 229.44 249.51 L 230.33 249.87 L 231.18 248.50 L 232.89 248.05 L 232.93 247.04 L 232.48 245.73 L 232.63 244.27 L 233.37 243.41 L 234.00 241.85 L 235.15 240.53 L 236.04 239.93 L 237.11 238.41 L 238.26 237.41 L 239.41 237.05 L 241.38 235.03 L 242.08 234.68 L 244.60 231.80 L 245.64 231.15 L 246.19 231.15 L 246.75 230.85 L 247.97 231.10 L 248.83 230.54 L 249.94 230.70 L 250.46 230.44 L 251.09 230.49 L 251.27 230.24 L 252.50 231.70 L 253.46 232.41 L 254.42 232.61 L 256.13 232.21 L 256.50 231.91 L 256.61 231.75 L 256.16 231.15 L 257.05 230.24 L 257.68 229.99 L 258.65 228.63 L 260.69 229.99 L 262.46 230.39 L 263.09 230.29 L 263.21 229.94 L 263.02 229.64 L 263.87 229.43 L 264.06 229.18 L 265.43 229.53 L 265.99 229.38 L 267.47 229.89 L 269.58 229.53 L 270.06 229.33 L 270.17 229.03 L 269.88 228.42 L 270.21 227.82 L 272.73 227.21 L 272.80 227.06 L 272.25 226.61 L 272.77 226.20 L 272.80 225.85 L 274.77 224.94 L 274.95 224.44 L 276.18 223.93 L 276.81 224.04 L 277.36 223.48 L 280.59 222.82 L 280.59 221.92 L 281.63 221.61 L 281.18 220.96 L 281.48 220.45 L 282.07 220.05 L 282.18 219.49 L 283.52 219.75 L 284.11 219.14 L 284.89 218.89 L 285.78 219.19 L 288.93 218.99 L 289.89 218.28 L 291.08 217.98 L 292.71 218.13 L 294.56 217.88 L 294.97 218.18 L 295.67 218.28 L 296.60 217.83 L 297.78 217.58 L 299.90 215.46 L 301.49 215.05 L 303.49 215.31 L 305.97 214.95 L 307.61 215.26 L 309.98 214.20 L 312.50 214.00 L 313.83 213.44 L 314.20 213.94 L 314.80 213.89 L 315.13 214.25 L 315.87 214.15 L 316.32 214.35 L 318.09 214.35 L 318.50 214.25 L 319.24 213.54 L 319.98 213.64 L 320.54 214.05 L 321.06 214.10 L 321.54 214.70 L 321.50 215.56 L 322.21 216.16 L 321.39 217.78 L 321.61 218.18 L 321.54 218.84 L 320.91 219.65 L 319.84 220.05 L 319.09 220.81 L 319.35 221.21 L 319.13 222.42 L 319.32 222.57 L 320.73 222.32 L 321.80 221.51 L 326.32 220.40 L 326.77 220.50 L 327.21 221.41 L 327.58 221.46 L 328.06 221.06 L 328.51 221.21 L 329.29 219.60 L 329.77 217.22 L 330.40 216.32 L 331.18 215.91 L 332.55 214.70 L 333.07 213.44 L 333.70 212.68 L 333.96 209.15 L 333.88 206.12 L 333.62 205.57 L 333.59 203.90 L 333.85 201.48 L 334.22 200.12 L 334.81 199.46 L 334.99 198.20 L 335.55 197.19 L 338.85 195.28 L 343.30 193.97 L 344.52 193.81 L 347.59 195.08 L 348.67 195.33 L 349.08 195.18 L 351.97 193.71 L 352.49 192.91 L 353.15 192.55 L 354.08 192.45 L 355.30 191.75 L 357.34 191.04 L 359.20 189.93 L 362.31 188.72 L 363.20 188.11 L 364.09 186.95 L 365.27 185.99 L 365.83 184.83 L 366.39 184.33 L 367.35 183.98 L 367.90 183.12 L 370.05 181.15 L 371.39 178.93 L 371.46 178.22 L 372.02 176.96 L 373.17 175.90 L 374.39 175.40 L 374.72 174.84 L 376.21 173.48 L 377.10 173.43 L 377.73 173.03 L 378.47 173.18 L 379.02 172.78 L 380.84 172.88 L 381.21 173.03 L 381.47 173.48 L 382.06 172.93 L 382.62 171.82 L 383.84 172.78 L 385.10 172.93 L 385.92 172.02 L 387.32 172.12 L 388.07 171.11 L 389.99 171.01 L 391.22 170.30 L 391.62 169.70 L 393.00 169.50 L 393.14 168.99 L 394.74 166.97 L 395.40 165.36 L 396.52 164.20 L 396.78 163.44 L 396.55 162.94 L 396.81 162.18 L 398.30 160.82 L 398.33 160.16 L 398.74 160.06 L 399.37 159.46 L 399.52 159.00 L 400.30 158.75 L 401.04 157.44 L 401.11 156.88 L 402.19 156.18 L 402.33 155.62 L 403.22 154.71 L 403.26 152.24 L 402.85 150.78 L 403.22 150.02 L 403.63 149.77 L 403.63 149.42 L 403.26 148.26 L 403.41 147.60 L 403.04 146.94 L 403.85 146.14 L 403.71 143.92 L 403.89 142.60 L 403.71 142.00 L 404.34 139.98 L 403.22 135.39 L 403.78 134.18 L 403.93 133.27 L 404.26 132.92 L 404.11 132.11 L 404.67 130.50 L 405.82 129.13 L 407.60 128.07 L 408.23 127.47 L 409.04 126.36 L 409.38 125.25 L 410.34 124.74 L 410.49 125.45 L 410.34 126.16 L 411.04 126.51 L 411.82 126.56 L 412.05 127.27 L 412.38 127.52 L 412.45 128.63 L 413.31 129.49 L 413.31 129.89 L 414.16 130.24 L 416.12 138.47 L 417.79 141.04 L 418.20 141.24 L 418.68 141.14 L 420.16 140.54 L 423.16 140.54 L 423.39 139.98 L 423.61 139.93 L 424.09 140.49 L 425.16 142.60 L 425.79 143.26 L 425.98 143.97 L 427.02 145.13 L 427.76 146.69 L 427.94 146.69 L 428.06 145.48 L 428.69 143.66 L 430.06 140.64 L 430.43 138.37 L 431.84 133.93 L 433.61 131.30 L 434.17 129.99 L 435.06 133.93 L 435.32 134.33 L 435.65 138.11 L 436.02 139.38 L 438.17 143.46 L 439.25 146.39 L 439.77 146.94 L 441.77 147.85 L 443.10 149.16 L 444.44 149.72 L 446.10 150.07 L 447.48 149.82 L 448.59 150.07 L 449.44 149.77 L 450.40 148.51 L 451.14 148.00 L 451.70 146.89 L 452.41 146.19 L 454.41 147.10 L 455.48 147.35 L 455.93 147.20 L 455.96 146.49 L 454.52 145.43 L 454.22 143.66 L 454.48 143.01 L 455.11 142.96 L 455.85 144.12 L 456.52 144.62 L 457.04 144.57 L 458.56 142.71 L 459.45 142.45 L 461.00 141.60 L 461.89 141.44 L 464.97 139.53 L 465.90 139.43 L 466.75 138.92 L 468.19 136.55 L 468.53 134.84 L 468.93 134.23 L 471.75 132.67 L 472.79 130.90 L 473.46 130.24 L 474.90 129.49 L 476.35 129.03 L 477.72 129.39 L 479.42 129.18 L 480.94 129.64 L 482.65 130.95 L 484.95 135.84 L 488.58 138.42 L 489.69 138.97 L 494.77 139.88 L 497.10 139.83 L 498.66 138.77 L 501.70 138.72 L 504.25 138.32 L 508.07 138.77 L 509.74 139.38 L 512.89 141.24 L 515.08 144.07 L 516.26 149.67 L 516.97 150.63 L 517.63 153.20 L 518.15 153.70 L 520.56 155.27 L 523.49 156.63 L 523.93 157.19 L 525.23 157.94 L 526.05 157.99 L 526.53 157.79 L 527.60 157.94 L 529.01 159.71 L 530.16 160.36 L 530.72 159.86 L 530.86 158.40 L 530.42 156.93 L 531.94 158.25 L 533.35 159.10 L 533.31 158.60 L 532.42 157.39 L 532.31 156.83 L 534.68 158.25 L 533.38 156.28 L 533.64 156.33 L 534.39 157.08 L 535.53 157.74 L 536.42 159.36 L 537.65 160.11 L 538.09 160.82 L 538.72 161.32 L 540.06 163.34 L 540.43 164.35 L 540.91 163.39 L 540.87 163.04 L 540.24 161.17 L 539.17 159.41 L 539.13 158.70 L 539.35 159.36 L 540.76 160.57 L 541.83 162.03 L 545.54 164.80 L 546.50 165.21 L 548.10 165.51 L 551.66 165.61 L 556.47 164.65 L 563.81 166.92 L 566.00 166.17 L 567.96 166.22 L 569.07 165.41 L 572.67 164.25 L 575.89 166.62 L 578.23 167.12 L 579.38 166.87 L 578.71 170.76 L 578.04 171.77 L 576.71 172.52 L 574.34 175.20 L 573.67 176.31 L 572.93 176.76 L 571.45 177.27 L 570.85 177.27 L 569.52 177.92 L 570.74 178.07 L 572.11 178.93 L 571.41 178.98 L 570.26 179.44 L 568.22 179.79 L 567.18 179.74 L 565.92 180.19 L 564.15 180.34 L 563.03 180.85 L 560.11 181.50 L 555.73 182.87 L 547.65 185.94 L 545.87 186.25 L 545.13 186.75 L 541.50 188.21 L 537.35 191.39 L 536.46 192.50 L 532.90 195.68 L 531.12 198.30 L 529.83 199.77 L 529.90 201.13 L 531.12 203.50 L 531.01 204.61 L 531.46 205.47 L 531.79 206.98 L 532.27 210.11 L 532.05 211.07 L 532.09 213.04 L 532.31 214.20 L 532.72 214.75 L 532.79 215.66 L 532.42 216.87 L 532.01 217.43 L 531.94 218.49 L 531.20 219.55 L 531.12 221.16 L 530.60 222.27 L 530.53 223.08 L 530.09 223.63 L 530.05 224.29 L 530.72 225.25 L 530.86 226.31 L 529.83 228.48 L 529.68 229.33 L 528.46 231.65 L 527.27 235.54 L 524.49 238.72 L 523.23 240.53 L 521.49 242.35 L 520.60 243.71 L 520.04 245.63 L 519.71 247.95 L 519.78 252.24 L 519.38 258.54 L 520.52 262.18 L 520.82 267.27 L 520.30 269.95 L 518.82 271.97 L 518.78 272.47 L 518.30 273.38 L 518.08 274.84 L 518.37 275.80 L 518.08 277.06 L 517.89 281.40 L 518.63 283.52 L 518.56 284.43 L 519.41 286.14 L 520.08 286.70 L 521.67 289.72 L 522.34 290.58 L 524.34 291.84 L 525.01 293.16 L 524.71 295.27 L 525.75 297.44 L 525.64 299.36 L 526.08 300.37 L 526.08 301.13 L 526.42 302.14 L 527.57 304.05 L 527.97 305.57 L 527.79 306.07 L 528.16 307.43 L 527.94 307.69 L 528.23 309.25 L 528.12 310.01 L 529.94 314.24 L 529.90 315.81 L 530.20 316.06 L 530.98 318.13 L 531.86 319.54 L 532.42 320.00 L 532.83 321.11 L 532.90 322.97 L 532.61 327.11 L 532.87 328.93 L 532.68 330.54 L 533.16 331.90 L 533.01 332.51 L 533.24 332.81 L 533.31 333.77 L 533.13 334.22 L 534.20 336.65 L 535.76 337.50 L 536.05 338.46 L 535.57 339.77 L 534.94 340.63 L 534.94 344.26 L 535.39 346.28 L 535.13 346.33 L 535.39 346.28 L 536.20 349.31 L 537.28 350.12 L 538.28 351.43 L 538.39 352.49 L 539.20 353.70 L 539.80 355.56 L 542.24 358.09 L 543.02 359.70 L 545.73 361.97 L 547.43 364.04 L 549.17 365.20 L 549.99 366.26 L 551.06 366.66 L 551.43 367.27 L 552.88 368.43 L 554.99 371.71 L 555.29 373.48 L 555.81 374.48 L 555.62 374.99 L 556.92 375.65 L 558.81 376.05 L 559.36 376.35 L 560.37 376.30 L 561.29 376.55 L 563.07 377.81 L 563.92 378.77 L 564.81 379.18 L 565.92 380.44 L 566.52 381.30 L 567.89 384.98 L 568.33 385.53 L 569.22 387.90 L 569.82 388.86 L 569.70 390.02 L 570.26 391.94 L 570.37 393.10 L 571.11 394.56 L 570.96 395.22 L 571.34 396.58 L 571.15 397.39 L 570.52 397.74 L 569.74 400.57 L 568.78 401.33 L 568.48 401.22 L 568.33 402.23 L 567.74 402.54 L 566.59 407.48 L 566.04 407.78 L 565.48 408.94 L 565.18 409.10 L 563.96 408.24 L 563.22 408.14 L 562.07 410.20 L 561.81 410.36 L 561.51 409.70 L 561.22 409.75 L 560.92 410.36 L 560.18 410.76 L 559.96 411.47 L 559.36 411.16 L 558.96 410.66 L 558.44 410.91 L 557.85 410.61 L 557.62 409.95 L 557.40 409.90 L 556.99 410.05 L 556.84 411.16 L 556.25 410.15 L 556.62 408.04 L 555.92 407.43 L 555.58 408.84 L 554.84 410.26 L 555.10 411.87 L 554.77 412.17 L 554.81 412.78 L 555.58 415.81 L 555.14 416.56 L 554.77 418.63 L 555.25 420.19 L 554.88 420.30 L 554.40 420.09 L 553.69 419.39 L 553.40 418.73 L 551.92 417.77 L 551.21 418.28 L 551.21 421.25 L 552.88 424.58 L 553.47 426.60 L 555.36 429.88 L 556.59 431.19 L 557.03 431.95 L 557.18 432.71 L 558.07 433.31 L 558.73 434.52 L 559.44 435.23 L 559.33 436.89 L 558.96 437.20 L 558.96 438.21 L 557.92 438.61 L 557.81 438.86 L 558.14 440.12 L 557.47 440.17 L 557.29 440.58 L 558.59 443.40 L 558.40 444.11 L 558.62 445.27 L 558.36 447.84 L 560.33 451.68 L 560.96 453.24 L 561.00 453.95 L 559.99 453.95 L 559.11 454.60 L 558.59 454.60 L 557.70 455.01 L 557.25 454.91 L 556.81 455.31 L 554.29 455.01 L 553.21 455.21 L 552.58 454.91 L 550.36 454.86 L 549.69 454.65 L 548.62 455.26 L 548.43 457.73 L 547.88 458.69 L 547.62 458.69 L 546.62 457.98 L 545.61 456.82 L 544.80 453.90 L 543.84 452.03 L 543.58 450.37 L 542.87 449.10 L 542.80 448.30 L 541.24 447.04 L 540.28 445.57 L 539.39 445.27 L 538.02 445.62 L 537.65 445.47 L 536.72 445.62 L 535.98 448.55 L 534.42 450.01 L 532.05 450.72 L 529.94 450.26 L 529.16 450.31 L 527.08 451.22 L 525.42 451.32 L 524.27 450.92 L 523.60 450.92 L 520.41 449.15 L 519.34 448.20 L 515.59 446.13 L 512.85 445.62 L 512.19 445.27 L 510.44 445.17 L 509.44 444.82 L 508.18 445.12 L 506.00 444.66 L 502.70 445.32 L 501.70 445.32 L 501.03 445.82 L 499.58 446.28 L 498.29 446.43 L 496.62 446.18 L 493.99 446.53 L 492.95 446.88 L 492.51 446.68 L 489.50 446.73 L 488.39 446.33 L 487.09 446.38 L 485.95 446.83 L 484.50 446.98 L 482.61 446.38 L 481.57 446.58 L 479.31 446.53 L 477.50 445.87 L 476.90 446.23 L 475.20 446.43 L 473.79 447.09 L 472.42 447.09 L 471.05 446.63 L 468.71 444.61 L 466.97 444.01 L 466.27 444.01 L 464.15 443.15 L 461.67 442.60 L 460.71 441.74 L 459.48 441.64 L 457.70 441.99 L 455.67 442.04 L 452.11 441.28 L 450.55 441.23 L 447.14 440.68 L 446.59 440.98 L 445.92 441.03 L 442.29 440.78 L 441.40 441.23 L 439.32 441.38 L 433.99 441.54 L 433.50 441.38 L 432.28 442.14 L 431.87 443.20 L 429.09 444.31 L 428.95 445.62 L 428.20 446.73 L 426.94 447.69 L 426.09 449.15 L 423.61 452.48 L 423.39 453.19 L 423.09 453.54 L 421.50 454.35 L 420.68 455.56 L 420.61 456.32 L 420.35 456.67 L 420.46 457.73 L 420.20 459.24 L 420.35 460.25 L 421.61 463.13 L 421.24 463.68 L 421.68 464.24 L 421.27 464.85 L 421.46 465.40 L 421.35 466.21 L 421.64 467.01 L 421.31 467.62 L 421.24 468.53 L 420.50 469.18 L 420.57 469.89 L 419.90 472.16 L 419.57 474.68 L 420.75 474.99 L 421.13 475.74 L 422.31 476.05 L 422.72 476.55 L 424.76 477.00 L 424.91 477.46 L 424.65 478.67 L 425.42 479.12 L 425.42 479.53 L 425.87 480.18 L 425.79 482.96 L 428.39 482.86 L 430.50 484.62 L 431.13 485.83 L 431.69 487.65 L 431.76 491.28 L 431.39 493.91 L 430.61 494.81 L 429.87 496.28 L 429.80 497.24 L 430.24 500.72 L 431.32 501.12 L 431.76 501.57 L 432.10 501.47 L 432.47 502.43 L 432.87 502.38 L 433.58 503.69 L 434.50 504.40 L 434.99 505.46 L 435.43 505.66 L 435.65 505.41 L 435.88 505.51 L 436.54 506.42 L 436.65 507.58 L 437.14 508.59 L 438.62 509.50 L 439.10 510.45 L 439.51 510.66 L 439.43 511.26 L 438.36 513.48 L 438.73 513.63 L 438.40 516.96 L 438.69 518.02 L 439.84 520.34 L 439.99 521.60 L 441.40 525.14 L 441.03 525.34 L 440.58 525.19 L 439.84 525.34 L 440.32 526.14 L 440.10 526.50 L 440.36 527.10 L 440.80 527.31 L 441.21 527.91 L 441.14 528.57 L 440.80 528.82 L 441.36 529.37 L 441.51 530.08 L 441.25 530.43 L 440.84 530.43 L 441.14 531.14 L 440.88 531.24 L 441.03 531.80 L 440.77 532.65 L 440.80 534.02 L 440.62 534.27 L 439.54 534.07 L 438.99 534.62 L 438.77 535.63 L 438.40 535.83 L 438.21 536.29 L 438.54 538.61 L 437.91 541.38 L 438.14 543.20 L 438.66 544.26 L 438.25 545.17 L 438.32 545.67 L 438.95 546.43 L 439.47 546.63 L 439.06 547.08 L 439.06 547.54 L 439.92 547.39 L 440.47 547.03 L 440.69 547.13 L 440.77 548.19 L 441.81 549.66 L 441.43 550.97 L 441.62 551.52 L 442.29 550.77 L 443.66 550.41 L 443.99 549.91 L 443.92 549.20 L 444.14 548.85 L 444.84 549.45 L 445.14 548.24 L 445.51 547.74 L 446.36 547.33 L 447.11 546.33 L 447.99 546.48 L 449.40 547.59 L 450.33 549.76 L 451.33 550.82 L 451.59 551.37 L 451.85 552.23 L 451.66 552.88 L 452.52 554.30 L 452.63 554.75 L 452.26 555.15 L 452.37 556.01 L 452.85 556.52 L 453.48 560.96 L 454.67 561.31 L 455.07 560.91 L 455.56 560.70 L 455.74 560.86 L 456.33 562.07 L 456.22 562.77 L 456.44 563.18 L 456.59 564.74 L 456.44 566.41 L 456.82 567.06 L 456.82 567.67 L 457.56 568.02 L 457.48 568.22 L 456.74 568.47 L 457.30 569.03 L 457.78 570.34 L 457.52 571.00 L 457.59 571.65 L 457.30 572.76 L 457.41 573.42 L 457.07 574.58 L 457.07 575.54 L 457.15 576.85 L 457.45 577.15 L 457.89 578.87 L 457.37 579.67 L 457.41 581.14 L 456.96 581.34 L 456.41 582.50 L 456.56 584.42 L 455.67 585.33 L 454.85 584.37 L 454.44 583.31 L 454.07 583.76 L 453.29 584.11 L 452.03 587.60 L 451.11 589.46 L 451.48 590.98 L 451.52 595.11 L 452.26 597.03 L 453.70 598.80 L 453.59 600.56 L 454.44 602.18 L 453.63 603.29 L 453.78 604.60 L 453.26 606.31 L 452.66 606.77 L 451.59 606.92 L 451.92 607.22 L 451.52 607.37 L 451.89 607.52 L 450.77 609.64 L 451.03 610.05 L 452.03 610.15 L 452.78 610.60 L 453.92 611.91 L 454.78 612.37 L 453.92 612.62 L 454.63 613.33 L 453.67 613.78 L 454.55 614.59 L 456.19 615.19 L 455.56 615.95 L 452.70 617.11 L 451.18 617.41 L 450.40 618.07 L 450.18 619.03 L 450.40 620.49 L 450.11 621.45 L 448.48 624.17 L 447.92 625.49 L 448.29 627.60 L 448.55 631.24 L 447.36 633.86 L 446.55 635.02 L 445.77 636.89 L 444.51 638.60 L 443.44 639.01 L 442.25 639.92 L 442.03 640.57 L 441.25 641.58 L 440.55 641.93 L 438.69 643.70 L 436.91 647.89 L 435.73 649.15 L 434.06 651.67 L 432.95 652.58 L 431.76 652.83 L 429.46 654.90 L 428.35 655.45 L 427.61 656.21 L 427.20 657.07 L 424.05 660.20 L 423.61 660.40 L 421.57 660.40 L 420.61 661.21 L 419.83 661.36 L 419.42 661.66 L 419.20 662.06 L 419.23 662.57 L 418.49 663.93 L 416.34 665.29 L 415.34 665.39 L 414.90 665.65 L 415.01 666.65 L 414.79 667.06 L 413.08 667.61 L 411.93 668.82 L 410.71 669.53 L 408.60 671.75 L 406.93 672.91 L 405.78 674.32 L 404.34 675.23 L 402.52 677.30 L 401.41 679.07 L 399.89 680.08 L 397.81 682.14 L 396.70 682.35 L 395.96 682.19 L 394.51 683.41 L 390.59 685.78 L 389.66 686.08 L 387.66 689.21 L 384.47 690.77 L 383.47 691.83 L 383.21 693.45 L 382.80 694.05 L 381.40 695.51 L 380.51 695.97 L 380.06 696.62 L 379.43 696.93 L 377.10 699.35 L 375.76 699.90 L 375.06 700.71 L 372.76 701.32 L 371.35 702.88 L 370.65 703.13 L 369.76 702.93 L 369.09 703.59 L 368.16 703.89 L 366.79 705.00 L 366.09 705.00 L 364.68 705.81 L 363.72 705.91 L 363.09 705.65 L 362.42 706.66 L 360.64 707.62 L 359.90 708.63 L 359.49 708.83 L 359.23 709.54 L 357.64 711.66 L 357.19 712.77 L 355.71 715.04 L 353.56 716.80 L 352.60 718.37 L 351.04 719.43 L 350.52 720.19 L 349.37 720.69 L 347.59 722.10 L 347.22 723.26 L 345.96 724.02 L 345.82 724.73 L 344.93 726.19 L 343.41 727.35 L 341.89 728.91 L 339.40 732.34 L 338.70 732.60 L 337.00 733.76 L 336.33 735.42 L 334.51 737.84 L 333.14 740.72 L 331.03 744.00 L 330.62 744.25 L 328.99 746.42 L 328.80 747.43 L 328.40 748.09 L 326.73 750.00 L 323.28 752.58 L 321.65 754.75 L 320.13 755.85 L 317.98 759.29 L 316.46 760.40 L 314.65 763.17 L 313.28 764.53 L 311.61 767.81 L 309.76 770.59 L 309.24 771.95 L 307.68 773.87 L 305.90 777.05 L 304.86 777.85 L 304.49 778.61 L 301.31 782.80 L 295.71 788.04 L 293.89 790.72 L 293.08 792.48 L 291.30 794.60 L 290.59 795.96 L 289.30 796.57 L 287.67 798.08 L 286.52 798.18 L 285.37 799.29 L 283.18 802.67 L 283.11 803.08 L 281.85 804.54 L 280.74 806.41 L 279.40 807.32 L 278.51 808.28 L 271.58 816.60 L 267.65 820.99 L 266.28 823.01 L 264.91 826.74 L 263.54 830.93 L 262.80 833.96 L 262.80 834.86 L 261.87 838.29 L 259.91 842.38 L 258.94 844.90 L 258.17 846.22 L 257.72 846.37 L 254.94 848.74 L 253.57 851.21 L 251.57 852.67 L 250.75 853.63 L 250.38 853.73 L 248.79 856.31 L 246.19 858.17 L 245.23 859.74 L 242.78 861.50 L 239.30 863.17 L 237.89 862.92 L 237.52 862.61 L 236.78 862.46 L 236.04 862.01 L 235.22 861.00 L 234.30 860.80 L 234.00 861.25 L 234.41 861.86 L 233.85 862.76 L 233.37 862.76 L 232.85 862.36 L 231.96 862.36 L 231.15 861.81 L 230.85 860.85 L 229.89 859.48 L 229.67 858.53 L 228.85 857.37 L 228.37 857.01 L 226.81 856.91 L 224.74 859.13 L 220.66 865.29 L 219.73 867.76 L 219.25 870.18 L 218.18 873.31 L 216.32 877.29 L 215.58 878.30 L 214.47 881.23 L 213.88 883.85 L 213.62 886.73 L 212.51 889.20 L 212.32 890.16 L 211.10 892.48 L 210.99 894.35 L 210.17 895.20" fill="none" stroke="#FBF8F1" stroke-width="7" stroke-linejoin="round"/>
<path d="M 210.17 895.20 L 210.99 894.35 L 211.10 892.48 L 212.32 890.16 L 212.51 889.20 L 213.62 886.73 L 213.88 883.85 L 214.47 881.23 L 215.58 878.30 L 216.32 877.29 L 218.18 873.31 L 219.25 870.18 L 219.73 867.76 L 220.66 865.29 L 223.70 860.49 L 224.18 860.14 L 224.74 859.13 L 225.33 858.68 L 226.07 855.90 L 226.22 853.58 L 225.25 851.56 L 225.11 850.40 L 224.29 848.79 L 224.29 847.68 L 224.74 845.91 L 224.40 845.31 L 224.33 844.30 L 224.77 843.74 L 224.92 842.63 L 226.00 839.40 L 227.29 838.34 L 227.81 837.03 L 228.63 836.12 L 229.11 833.55 L 229.55 832.74 L 229.41 832.19 L 231.18 828.15 L 230.89 827.50 L 230.93 826.99 L 231.33 826.39 L 232.59 825.83 L 232.67 824.92 L 231.30 822.40 L 230.59 821.85 L 230.67 821.04 L 231.18 820.54 L 231.11 819.83 L 228.78 815.79 L 228.66 814.78 L 228.11 813.93 L 227.48 809.94 L 226.96 809.33 L 226.37 808.07 L 224.96 807.06 L 224.25 806.81 L 223.81 806.91 L 218.99 803.73 L 217.99 803.38 L 217.14 803.38 L 216.95 803.23 L 217.14 802.78 L 216.95 802.22 L 216.03 802.78 L 215.62 802.52 L 215.25 802.57 L 214.14 801.01 L 213.88 800.30 L 213.95 799.35 L 214.36 798.18 L 215.21 796.77 L 215.51 795.86 L 215.58 793.34 L 215.17 791.93 L 214.66 791.37 L 214.62 790.62 L 215.10 789.46 L 215.43 786.53 L 216.25 783.60 L 216.51 782.19 L 216.29 781.13 L 216.55 780.43 L 215.95 780.78 L 215.47 781.84 L 214.28 781.69 L 213.95 781.28 L 213.91 780.58 L 214.14 780.07 L 213.43 778.26 L 213.28 775.78 L 214.36 773.87 L 216.58 770.89 L 217.14 769.83 L 216.73 768.57 L 216.88 767.61 L 216.62 765.74 L 216.32 764.99 L 215.43 764.18 L 214.99 762.11 L 214.06 761.05 L 213.88 760.55 L 214.03 759.84 L 214.84 758.73 L 214.62 757.02 L 215.03 755.45 L 214.91 755.00 L 214.32 753.94 L 213.69 753.48 L 212.14 753.08 L 210.99 750.66 L 210.36 748.34 L 210.65 745.31 L 211.28 743.49 L 210.87 741.02 L 210.80 738.45 L 208.17 734.97 L 205.87 733.91 L 204.32 731.74 L 203.68 731.39 L 202.68 731.39 L 202.17 730.73 L 201.83 729.97 L 201.98 729.01 L 201.76 727.25 L 201.54 726.54 L 201.05 725.99 L 200.91 724.88 L 200.39 724.32 L 200.24 723.62 L 199.31 723.06 L 196.83 718.97 L 194.75 716.45 L 194.01 713.63 L 193.72 713.22 L 192.71 712.87 L 192.38 712.52 L 192.01 710.25 L 191.20 709.14 L 190.60 707.72 L 190.64 705.55 L 190.31 703.74 L 190.42 701.82 L 189.56 698.84 L 189.45 695.67 L 189.01 694.05 L 189.12 692.28 L 188.23 687.69 L 186.64 683.46 L 184.15 679.72 L 181.78 674.93 L 180.97 672.20 L 180.82 669.78 L 180.00 667.46 L 177.56 664.49 L 177.19 664.23 L 176.33 664.13 L 175.78 663.63 L 172.92 662.77 L 172.00 661.41 L 171.44 661.11 L 170.89 661.16 L 170.51 660.05 L 169.74 659.09 L 169.48 658.43 L 169.59 656.67 L 169.40 655.96 L 167.92 654.04 L 167.92 653.03 L 168.29 651.37 L 166.92 650.51 L 166.14 649.65 L 163.32 649.20 L 162.18 649.45 L 161.62 649.00 L 161.21 647.74 L 159.99 646.42 L 160.17 645.21 L 159.88 644.35 L 158.88 643.70 L 158.32 643.04 L 157.40 640.97 L 157.25 639.51 L 157.54 638.81 L 157.51 635.42 L 157.21 634.77 L 156.69 634.31 L 156.36 633.20 L 156.88 631.64 L 158.06 629.22 L 158.77 628.36 L 159.51 627.86 L 160.95 625.94 L 160.58 624.12 L 159.99 623.06 L 159.32 622.46 L 159.47 622.00 L 160.58 620.84 L 160.43 618.78 L 160.80 616.25 L 162.69 613.12 L 162.84 612.42 L 162.95 610.45 L 162.66 609.09 L 162.84 608.13 L 162.62 606.52 L 162.47 599.60 L 162.06 597.89 L 161.88 595.67 L 160.99 593.35 L 160.99 591.88 L 160.77 590.98 L 159.77 588.40 L 158.62 584.17 L 158.73 581.84 L 158.10 578.16 L 157.99 575.54 L 158.91 573.97 L 159.03 572.31 L 158.51 571.60 L 157.54 571.20 L 156.28 571.05 L 155.50 570.54 L 154.54 569.28 L 153.99 567.52 L 153.10 566.10 L 150.91 564.44 L 150.65 563.73 L 149.58 562.52 L 149.28 561.26 L 149.35 560.55 L 147.94 558.03 L 148.13 556.72 L 147.94 554.55 L 148.13 551.22 L 148.28 550.26 L 148.91 549.00 L 149.09 546.98 L 148.95 546.43 L 148.46 545.97 L 148.54 543.90 L 148.35 543.00 L 150.35 539.67 L 150.54 538.86 L 148.98 538.91 L 148.87 537.70 L 147.80 536.39 L 147.61 535.43 L 147.24 534.87 L 147.31 534.17 L 147.09 533.61 L 145.54 532.40 L 145.16 531.39 L 143.39 529.78 L 143.61 528.92 L 143.24 527.61 L 144.76 526.40 L 145.50 525.44 L 146.35 524.98 L 146.61 524.18 L 144.79 523.27 L 144.57 522.87 L 144.46 522.16 L 145.02 520.80 L 144.31 519.59 L 144.13 517.21 L 143.50 515.85 L 143.31 514.59 L 142.90 513.99 L 142.01 513.38 L 139.68 512.37 L 138.98 512.27 L 135.71 506.87 L 134.57 501.88 L 133.19 500.26 L 132.27 498.24 L 132.16 496.73 L 131.67 494.86 L 131.04 487.50 L 130.64 486.89 L 129.75 483.16 L 128.82 481.80 L 128.34 480.64 L 127.00 478.82 L 125.49 478.27 L 124.45 477.61 L 123.19 477.36 L 120.93 475.34 L 119.81 474.63 L 119.07 473.37 L 119.04 472.16 L 118.59 470.90 L 117.04 468.33 L 116.92 466.11 L 114.70 462.93 L 114.33 460.91 L 114.00 460.15 L 110.66 455.01 L 108.29 450.62 L 108.44 449.20 L 110.18 446.88 L 110.66 444.56 L 111.51 442.49 L 112.07 442.65 L 113.66 444.01 L 115.33 444.26 L 116.55 444.01 L 117.78 443.35 L 119.85 441.08 L 120.70 440.58 L 121.30 439.37 L 120.59 435.13 L 120.67 433.97 L 120.30 433.21 L 120.44 432.00 L 120.30 430.54 L 119.67 427.46 L 118.93 425.90 L 118.15 419.24 L 117.67 417.62 L 117.11 412.32 L 116.66 410.66 L 116.96 407.63 L 116.85 406.67 L 116.33 405.77 L 115.77 403.70 L 115.18 400.01 L 115.14 394.06 L 115.96 389.52 L 115.70 387.96 L 116.78 386.34 L 117.55 383.16 L 118.63 381.09 L 118.48 380.64 L 118.63 379.73 L 119.74 376.96 L 121.41 374.89 L 122.63 371.76 L 125.04 367.62 L 127.49 364.34 L 129.08 363.13 L 132.93 359.05 L 135.97 356.32 L 138.05 353.85 L 139.57 350.72 L 141.31 348.70 L 141.72 347.49 L 143.09 345.63 L 143.20 344.72 L 143.98 343.30 L 143.20 338.87 L 143.65 337.15 L 144.65 336.09 L 144.79 334.98 L 144.57 333.37 L 144.91 332.31 L 144.61 331.90 L 144.31 331.85 L 144.16 331.20 L 143.53 330.84 L 143.31 329.88 L 143.90 329.13 L 144.16 328.07 L 144.05 327.31 L 143.24 325.34 L 144.09 321.81 L 143.53 321.46 L 143.57 321.00 L 142.72 320.35 L 142.13 320.30 L 141.35 320.65 L 141.16 320.25 L 141.53 319.39 L 141.27 318.23 L 141.38 317.52 L 140.83 316.36 L 139.83 313.03 L 140.12 311.52 L 139.90 310.61 L 140.24 307.89 L 139.98 306.47 L 138.86 304.31 L 139.01 303.09 L 137.16 298.50 L 137.23 298.05 L 136.68 297.04 L 136.53 296.13 L 135.94 295.02 L 135.23 292.55 L 135.27 291.94 L 134.60 290.43 L 134.49 288.87 L 133.94 287.50 L 133.31 286.70 L 132.01 282.96 L 131.08 281.30 L 130.38 278.42 L 130.01 277.82 L 129.45 275.75 L 129.04 275.35 L 129.45 275.75 L 130.01 277.82 L 130.38 278.42 L 131.08 281.30 L 132.01 282.96 L 133.31 286.70 L 133.94 287.50 L 134.49 288.87 L 134.60 290.43 L 135.20 291.84 L 135.57 291.39 L 136.68 287.81 L 136.68 287.10 L 136.97 286.75 L 137.01 284.78 L 137.46 284.12 L 138.16 283.72 L 140.64 283.82 L 142.68 283.01 L 143.90 282.86 L 144.53 281.95 L 147.05 280.24 L 148.83 280.54 L 150.06 279.94 L 152.69 280.34 L 155.99 282.36 L 158.17 283.01 L 160.73 283.47 L 163.03 284.43 L 164.44 284.17 L 166.99 284.78 L 168.07 284.78 L 168.92 284.98 L 169.22 285.39 L 170.63 285.94 L 172.89 286.39 L 175.96 286.45 L 177.33 287.15 L 178.71 286.19 L 181.78 285.39 L 184.52 285.69 L 185.38 284.78 L 188.71 282.91 L 191.12 282.46 L 192.12 281.25 L 194.09 280.64 L 195.61 279.79 L 196.50 278.88 L 198.16 278.93 L 199.02 278.42 L 200.35 276.05 L 201.20 275.19 L 204.72 273.18 L 204.65 272.47 L 204.91 271.81 L 207.17 269.04 L 209.17 268.33 L 212.14 266.26 L 212.84 265.56 L 215.14 262.13 L 215.66 262.03 L 215.73 261.77 L 217.06 261.93 L 217.77 261.77 L 218.77 261.12 L 219.58 260.01 L 219.81 258.80 L 220.51 257.94 L 221.47 257.43 L 222.03 257.38 L 224.25 255.57 L 225.96 253.40 L 227.89 250.22 L 229.44 249.51 L 230.33 249.87 L 231.18 248.50 L 232.89 248.05 L 232.93 247.04 L 232.48 245.73 L 232.63 244.27 L 233.37 243.41 L 234.00 241.85 L 235.15 240.53 L 236.04 239.93 L 237.11 238.41 L 238.26 237.41 L 239.41 237.05 L 241.38 235.03 L 242.08 234.68 L 244.60 231.80 L 245.64 231.15 L 246.19 231.15 L 246.75 230.85 L 247.97 231.10 L 248.83 230.54 L 249.94 230.70 L 250.46 230.44 L 251.09 230.49 L 251.27 230.24 L 252.50 231.70 L 253.46 232.41 L 254.42 232.61 L 256.13 232.21 L 256.50 231.91 L 256.61 231.75 L 256.16 231.15 L 257.05 230.24 L 257.68 229.99 L 258.65 228.63 L 260.69 229.99 L 262.46 230.39 L 263.09 230.29 L 263.21 229.94 L 263.02 229.64 L 263.87 229.43 L 264.06 229.18 L 265.43 229.53 L 265.99 229.38 L 267.47 229.89 L 269.58 229.53 L 270.06 229.33 L 270.17 229.03 L 269.88 228.42 L 270.21 227.82 L 272.73 227.21 L 272.80 227.06 L 272.25 226.61 L 272.77 226.20 L 272.80 225.85 L 274.77 224.94 L 274.95 224.44 L 276.18 223.93 L 276.81 224.04 L 277.36 223.48 L 280.59 222.82 L 280.59 221.92 L 281.63 221.61 L 281.18 220.96 L 281.48 220.45 L 282.07 220.05 L 282.18 219.49 L 283.52 219.75 L 284.11 219.14 L 284.89 218.89 L 285.78 219.19 L 288.93 218.99 L 289.89 218.28 L 291.08 217.98 L 292.71 218.13 L 294.56 217.88 L 294.97 218.18 L 295.67 218.28 L 296.60 217.83 L 297.78 217.58 L 299.90 215.46 L 301.49 215.05 L 303.49 215.31 L 305.97 214.95 L 307.61 215.26 L 309.98 214.20 L 312.50 214.00 L 313.83 213.44 L 314.20 213.94 L 314.80 213.89 L 315.13 214.25 L 315.87 214.15 L 316.32 214.35 L 318.09 214.35 L 318.50 214.25 L 319.24 213.54 L 319.98 213.64 L 320.54 214.05 L 321.06 214.10 L 321.54 214.70 L 321.50 215.56 L 322.21 216.16 L 321.39 217.78 L 321.61 218.18 L 321.54 218.84 L 320.91 219.65 L 319.84 220.05 L 319.09 220.81 L 319.35 221.21 L 319.13 222.42 L 319.32 222.57 L 320.73 222.32 L 321.80 221.51 L 326.32 220.40 L 326.77 220.50 L 327.21 221.41 L 327.58 221.46 L 328.06 221.06 L 328.51 221.21 L 329.29 219.60 L 329.77 217.22 L 330.40 216.32 L 331.18 215.91 L 332.55 214.70 L 333.07 213.44 L 333.70 212.68 L 333.96 209.15 L 333.88 206.12 L 333.62 205.57 L 333.59 203.90 L 333.85 201.48 L 334.22 200.12 L 334.81 199.46 L 334.99 198.20 L 335.55 197.19 L 338.85 195.28 L 343.30 193.97 L 344.52 193.81 L 347.59 195.08 L 348.67 195.33 L 349.08 195.18 L 351.97 193.71 L 352.49 192.91 L 353.15 192.55 L 354.08 192.45 L 355.30 191.75 L 357.34 191.04 L 359.20 189.93 L 362.31 188.72 L 363.20 188.11 L 364.09 186.95 L 365.27 185.99 L 365.83 184.83 L 366.39 184.33 L 367.35 183.98 L 367.90 183.12 L 370.05 181.15 L 371.39 178.93 L 371.46 178.22 L 372.02 176.96 L 373.17 175.90 L 374.39 175.40 L 374.72 174.84 L 376.21 173.48 L 377.10 173.43 L 377.73 173.03 L 378.47 173.18 L 379.02 172.78 L 380.84 172.88 L 381.21 173.03 L 381.47 173.48 L 382.06 172.93 L 382.62 171.82 L 383.84 172.78 L 385.10 172.93 L 385.92 172.02 L 387.32 172.12 L 388.07 171.11 L 389.99 171.01 L 391.22 170.30 L 391.62 169.70 L 393.00 169.50 L 393.14 168.99 L 394.74 166.97 L 395.40 165.36 L 396.52 164.20 L 396.78 163.44 L 396.55 162.94 L 396.81 162.18 L 398.30 160.82 L 398.33 160.16 L 398.74 160.06 L 399.37 159.46 L 399.52 159.00 L 400.30 158.75 L 401.04 157.44 L 401.11 156.88 L 402.19 156.18 L 402.33 155.62 L 403.22 154.71 L 403.26 152.24 L 402.85 150.78 L 403.22 150.02 L 403.63 149.77 L 403.63 149.42 L 403.26 148.26 L 403.41 147.60 L 403.04 146.94 L 403.85 146.14 L 403.71 143.92 L 403.89 142.60 L 403.71 142.00 L 404.34 139.98 L 403.22 135.39 L 403.78 134.18 L 403.93 133.27 L 404.26 132.92 L 404.11 132.11 L 404.67 130.50 L 405.82 129.13 L 407.60 128.07 L 408.23 127.47 L 409.04 126.36 L 409.38 125.25 L 410.34 124.74 L 410.49 125.45 L 410.34 126.16 L 411.04 126.51 L 411.82 126.56 L 412.05 127.27 L 412.38 127.52 L 412.45 128.63 L 413.31 129.49 L 413.31 129.89 L 414.16 130.24 L 416.12 138.47 L 417.79 141.04 L 418.20 141.24 L 418.68 141.14 L 420.16 140.54 L 423.16 140.54 L 423.39 139.98 L 423.61 139.93 L 424.09 140.49 L 425.16 142.60 L 425.79 143.26 L 425.98 143.97 L 427.02 145.13 L 427.76 146.69 L 427.94 146.69 L 428.06 145.48 L 428.69 143.66 L 430.06 140.64 L 430.43 138.37 L 431.84 133.93 L 433.61 131.30 L 434.17 129.99 L 435.06 133.93 L 435.32 134.33 L 435.65 138.11 L 436.02 139.38 L 438.17 143.46 L 439.25 146.39 L 439.77 146.94 L 441.77 147.85 L 443.10 149.16 L 444.44 149.72 L 446.10 150.07 L 447.48 149.82 L 448.59 150.07 L 449.44 149.77 L 450.40 148.51 L 451.14 148.00 L 451.70 146.89 L 452.41 146.19 L 454.41 147.10 L 455.48 147.35 L 455.93 147.20 L 455.96 146.49 L 454.52 145.43 L 454.22 143.66 L 454.48 143.01 L 455.11 142.96 L 455.85 144.12 L 456.52 144.62 L 457.04 144.57 L 458.56 142.71 L 459.45 142.45 L 461.00 141.60 L 461.89 141.44 L 464.97 139.53 L 465.90 139.43 L 466.75 138.92 L 468.19 136.55 L 468.53 134.84 L 468.93 134.23 L 471.75 132.67 L 472.79 130.90 L 473.46 130.24 L 474.90 129.49 L 476.35 129.03 L 477.72 129.39 L 479.42 129.18 L 480.94 129.64 L 482.65 130.95 L 484.95 135.84 L 488.58 138.42 L 489.69 138.97 L 494.77 139.88 L 497.10 139.83 L 498.66 138.77 L 501.70 138.72 L 504.25 138.32 L 508.07 138.77 L 509.74 139.38 L 512.89 141.24 L 515.08 144.07 L 516.26 149.67 L 516.97 150.63 L 517.63 153.20 L 518.15 153.70 L 520.56 155.27 L 523.49 156.63 L 523.93 157.19 L 525.23 157.94 L 526.05 157.99 L 526.53 157.79 L 527.60 157.94 L 529.01 159.71 L 530.16 160.36 L 530.72 159.86 L 530.86 158.40 L 530.42 156.93 L 531.94 158.25 L 533.35 159.10 L 533.31 158.60 L 532.42 157.39 L 532.31 156.83 L 534.68 158.25 L 533.38 156.28 L 533.64 156.33 L 534.39 157.08 L 535.53 157.74 L 536.42 159.36 L 537.65 160.11 L 538.09 160.82 L 538.72 161.32 L 540.06 163.34 L 540.43 164.35 L 540.91 163.39 L 540.87 163.04 L 540.24 161.17 L 539.17 159.41 L 539.13 158.70 L 539.35 159.36 L 540.76 160.57 L 541.83 162.03 L 545.54 164.80 L 546.50 165.21 L 548.10 165.51 L 551.66 165.61 L 556.47 164.65 L 563.81 166.92 L 566.00 166.17 L 567.96 166.22 L 569.07 165.41 L 572.67 164.25 L 575.89 166.62 L 578.23 167.12 L 579.38 166.87 L 578.71 170.76 L 578.04 171.77 L 576.71 172.52 L 574.34 175.20 L 573.67 176.31 L 572.93 176.76 L 571.45 177.27 L 570.85 177.27 L 569.52 177.92 L 570.74 178.07 L 572.11 178.93 L 571.41 178.98 L 570.26 179.44 L 568.22 179.79 L 567.18 179.74 L 565.92 180.19 L 564.15 180.34 L 563.03 180.85 L 560.11 181.50 L 555.73 182.87 L 547.65 185.94 L 545.87 186.25 L 545.13 186.75 L 541.50 188.21 L 537.35 191.39 L 536.46 192.50 L 532.90 195.68 L 531.12 198.30 L 529.83 199.77 L 529.90 201.13 L 531.12 203.50 L 531.01 204.61 L 531.46 205.47 L 531.79 206.98 L 532.27 210.11 L 532.05 211.07 L 532.09 213.04 L 532.31 214.20 L 532.72 214.75 L 532.79 215.66 L 532.42 216.87 L 532.01 217.43 L 531.94 218.49 L 531.20 219.55 L 531.12 221.16 L 530.60 222.27 L 530.53 223.08 L 530.09 223.63 L 530.05 224.29 L 530.72 225.25 L 530.86 226.31 L 529.83 228.48 L 529.68 229.33 L 528.46 231.65 L 527.27 235.54 L 524.49 238.72 L 523.23 240.53 L 521.49 242.35 L 520.60 243.71 L 520.04 245.63 L 519.71 247.95 L 519.78 252.24 L 519.38 258.54 L 520.52 262.18 L 520.82 267.27 L 520.30 269.95 L 518.82 271.97 L 518.78 272.47 L 518.30 273.38 L 518.08 274.84 L 518.37 275.80 L 518.08 277.06 L 517.89 281.40 L 518.63 283.52 L 518.56 284.43 L 519.41 286.14 L 520.08 286.70 L 521.67 289.72 L 522.34 290.58 L 524.34 291.84 L 525.01 293.16 L 524.71 295.27 L 525.75 297.44 L 525.64 299.36 L 526.08 300.37 L 526.08 301.13 L 526.42 302.14 L 527.57 304.05 L 527.97 305.57 L 527.79 306.07 L 528.16 307.43 L 527.94 307.69 L 528.23 309.25 L 528.12 310.01 L 529.94 314.24 L 529.90 315.81 L 530.20 316.06 L 530.98 318.13 L 531.86 319.54 L 532.42 320.00 L 532.83 321.11 L 532.90 322.97 L 532.61 327.11 L 532.87 328.93 L 532.68 330.54 L 533.16 331.90 L 533.01 332.51 L 533.24 332.81 L 533.31 333.77 L 533.13 334.22 L 534.20 336.65 L 535.76 337.50 L 536.05 338.46 L 535.57 339.77 L 534.94 340.63 L 534.94 344.26 L 535.39 346.28 L 535.13 346.33 L 535.39 346.28 L 536.20 349.31 L 537.28 350.12 L 538.28 351.43 L 538.39 352.49 L 539.20 353.70 L 539.80 355.56 L 542.24 358.09 L 543.02 359.70 L 545.73 361.97 L 547.43 364.04 L 549.17 365.20 L 549.99 366.26 L 551.06 366.66 L 551.43 367.27 L 552.88 368.43 L 554.99 371.71 L 555.29 373.48 L 555.81 374.48 L 555.62 374.99 L 556.92 375.65 L 558.81 376.05 L 559.36 376.35 L 560.37 376.30 L 561.29 376.55 L 563.07 377.81 L 563.92 378.77 L 564.81 379.18 L 565.92 380.44 L 566.52 381.30 L 567.89 384.98 L 568.33 385.53 L 569.22 387.90 L 569.82 388.86 L 569.70 390.02 L 570.26 391.94 L 570.37 393.10 L 571.11 394.56 L 570.96 395.22 L 571.34 396.58 L 571.15 397.39 L 570.52 397.74 L 569.74 400.57 L 568.78 401.33 L 568.48 401.22 L 568.33 402.23 L 567.74 402.54 L 566.59 407.48 L 566.04 407.78 L 565.48 408.94 L 565.18 409.10 L 563.96 408.24 L 563.22 408.14 L 562.07 410.20 L 561.81 410.36 L 561.51 409.70 L 561.22 409.75 L 560.92 410.36 L 560.18 410.76 L 559.96 411.47 L 559.36 411.16 L 558.96 410.66 L 558.44 410.91 L 557.85 410.61 L 557.62 409.95 L 557.40 409.90 L 556.99 410.05 L 556.84 411.16 L 556.25 410.15 L 556.62 408.04 L 555.92 407.43 L 555.58 408.84 L 554.84 410.26 L 555.10 411.87 L 554.77 412.17 L 554.81 412.78 L 555.58 415.81 L 555.14 416.56 L 554.77 418.63 L 555.25 420.19 L 554.88 420.30 L 554.40 420.09 L 553.69 419.39 L 553.40 418.73 L 551.92 417.77 L 551.21 418.28 L 551.21 421.25 L 552.88 424.58 L 553.47 426.60 L 555.36 429.88 L 556.59 431.19 L 557.03 431.95 L 557.18 432.71 L 558.07 433.31 L 558.73 434.52 L 559.44 435.23 L 559.33 436.89 L 558.96 437.20 L 558.96 438.21 L 557.92 438.61 L 557.81 438.86 L 558.14 440.12 L 557.47 440.17 L 557.29 440.58 L 558.59 443.40 L 558.40 444.11 L 558.62 445.27 L 558.36 447.84 L 560.33 451.68 L 560.96 453.24 L 561.00 453.95 L 559.99 453.95 L 559.11 454.60 L 558.59 454.60 L 557.70 455.01 L 557.25 454.91 L 556.81 455.31 L 554.29 455.01 L 553.21 455.21 L 552.58 454.91 L 550.36 454.86 L 549.69 454.65 L 548.62 455.26 L 548.43 457.73 L 547.88 458.69 L 547.62 458.69 L 546.62 457.98 L 545.61 456.82 L 544.80 453.90 L 543.84 452.03 L 543.58 450.37 L 542.87 449.10 L 542.80 448.30 L 541.24 447.04 L 540.28 445.57 L 539.39 445.27 L 538.02 445.62 L 537.65 445.47 L 536.72 445.62 L 535.98 448.55 L 534.42 450.01 L 532.05 450.72 L 529.94 450.26 L 529.16 450.31 L 527.08 451.22 L 525.42 451.32 L 524.27 450.92 L 523.60 450.92 L 520.41 449.15 L 519.34 448.20 L 515.59 446.13 L 512.85 445.62 L 512.19 445.27 L 510.44 445.17 L 509.44 444.82 L 508.18 445.12 L 506.00 444.66 L 502.70 445.32 L 501.70 445.32 L 501.03 445.82 L 499.58 446.28 L 498.29 446.43 L 496.62 446.18 L 493.99 446.53 L 492.95 446.88 L 492.51 446.68 L 489.50 446.73 L 488.39 446.33 L 487.09 446.38 L 485.95 446.83 L 484.50 446.98 L 482.61 446.38 L 481.57 446.58 L 479.31 446.53 L 477.50 445.87 L 476.90 446.23 L 475.20 446.43 L 473.79 447.09 L 472.42 447.09 L 471.05 446.63 L 468.71 444.61 L 466.97 444.01 L 466.27 444.01 L 464.15 443.15 L 461.67 442.60 L 460.71 441.74 L 459.48 441.64 L 457.70 441.99 L 455.67 442.04 L 452.11 441.28 L 450.55 441.23 L 447.14 440.68 L 446.59 440.98 L 445.92 441.03 L 442.29 440.78 L 441.40 441.23 L 439.32 441.38 L 433.99 441.54 L 433.50 441.38 L 432.28 442.14 L 431.87 443.20 L 429.09 444.31 L 428.95 445.62 L 428.20 446.73 L 426.94 447.69 L 426.09 449.15 L 423.61 452.48 L 423.39 453.19 L 423.09 453.54 L 421.50 454.35 L 420.68 455.56 L 420.61 456.32 L 420.35 456.67 L 420.46 457.73 L 420.20 459.24 L 420.35 460.25 L 421.61 463.13 L 421.24 463.68 L 421.68 464.24 L 421.27 464.85 L 421.46 465.40 L 421.35 466.21 L 421.64 467.01 L 421.31 467.62 L 421.24 468.53 L 420.50 469.18 L 420.57 469.89 L 419.90 472.16 L 419.57 474.68 L 420.75 474.99 L 421.13 475.74 L 422.31 476.05 L 422.72 476.55 L 424.76 477.00 L 424.91 477.46 L 424.65 478.67 L 425.42 479.12 L 425.42 479.53 L 425.87 480.18 L 425.79 482.96 L 428.39 482.86 L 430.50 484.62 L 431.13 485.83 L 431.69 487.65 L 431.76 491.28 L 431.39 493.91 L 430.61 494.81 L 429.87 496.28 L 429.80 497.24 L 430.24 500.72 L 431.32 501.12 L 431.76 501.57 L 432.10 501.47 L 432.47 502.43 L 432.87 502.38 L 433.58 503.69 L 434.50 504.40 L 434.99 505.46 L 435.43 505.66 L 435.65 505.41 L 435.88 505.51 L 436.54 506.42 L 436.65 507.58 L 437.14 508.59 L 438.62 509.50 L 439.10 510.45 L 439.51 510.66 L 439.43 511.26 L 438.36 513.48 L 438.73 513.63 L 438.40 516.96 L 438.69 518.02 L 439.84 520.34 L 439.99 521.60 L 441.40 525.14 L 441.03 525.34 L 440.58 525.19 L 439.84 525.34 L 440.32 526.14 L 440.10 526.50 L 440.36 527.10 L 440.80 527.31 L 441.21 527.91 L 441.14 528.57 L 440.80 528.82 L 441.36 529.37 L 441.51 530.08 L 441.25 530.43 L 440.84 530.43 L 441.14 531.14 L 440.88 531.24 L 441.03 531.80 L 440.77 532.65 L 440.80 534.02 L 440.62 534.27 L 439.54 534.07 L 438.99 534.62 L 438.77 535.63 L 438.40 535.83 L 438.21 536.29 L 438.54 538.61 L 437.91 541.38 L 438.14 543.20 L 438.66 544.26 L 438.25 545.17 L 438.32 545.67 L 438.95 546.43 L 439.47 546.63 L 439.06 547.08 L 439.06 547.54 L 439.92 547.39 L 440.47 547.03 L 440.69 547.13 L 440.77 548.19 L 441.81 549.66 L 441.43 550.97 L 441.62 551.52 L 442.29 550.77 L 443.66 550.41 L 443.99 549.91 L 443.92 549.20 L 444.14 548.85 L 444.84 549.45 L 445.14 548.24 L 445.51 547.74 L 446.36 547.33 L 447.11 546.33 L 447.99 546.48 L 449.40 547.59 L 450.33 549.76 L 451.33 550.82 L 451.59 551.37 L 451.85 552.23 L 451.66 552.88 L 452.52 554.30 L 452.63 554.75 L 452.26 555.15 L 452.37 556.01 L 452.85 556.52 L 453.48 560.96 L 454.67 561.31 L 455.07 560.91 L 455.56 560.70 L 455.74 560.86 L 456.33 562.07 L 456.22 562.77 L 456.44 563.18 L 456.59 564.74 L 456.44 566.41 L 456.82 567.06 L 456.82 567.67 L 457.56 568.02 L 457.48 568.22 L 456.74 568.47 L 457.30 569.03 L 457.78 570.34 L 457.52 571.00 L 457.59 571.65 L 457.30 572.76 L 457.41 573.42 L 457.07 574.58 L 457.07 575.54 L 457.15 576.85 L 457.45 577.15 L 457.89 578.87 L 457.37 579.67 L 457.41 581.14 L 456.96 581.34 L 456.41 582.50 L 456.56 584.42 L 455.67 585.33 L 454.85 584.37 L 454.44 583.31 L 454.07 583.76 L 453.29 584.11 L 452.03 587.60 L 451.11 589.46 L 451.48 590.98 L 451.52 595.11 L 452.26 597.03 L 453.70 598.80 L 453.59 600.56 L 454.44 602.18 L 453.63 603.29 L 453.78 604.60 L 453.26 606.31 L 452.66 606.77 L 451.59 606.92 L 451.92 607.22 L 451.52 607.37 L 451.89 607.52 L 450.77 609.64 L 451.03 610.05 L 452.03 610.15 L 452.78 610.60 L 453.92 611.91 L 454.78 612.37 L 453.92 612.62 L 454.63 613.33 L 453.67 613.78 L 454.55 614.59 L 456.19 615.19 L 455.56 615.95 L 452.70 617.11 L 451.18 617.41 L 450.40 618.07 L 450.18 619.03 L 450.40 620.49 L 450.11 621.45 L 448.48 624.17 L 447.92 625.49 L 448.29 627.60 L 448.55 631.24 L 447.36 633.86 L 446.55 635.02 L 445.77 636.89 L 444.51 638.60 L 443.44 639.01 L 442.25 639.92 L 442.03 640.57 L 441.25 641.58 L 440.55 641.93 L 438.69 643.70 L 436.91 647.89 L 435.73 649.15 L 434.06 651.67 L 432.95 652.58 L 431.76 652.83 L 429.46 654.90 L 428.35 655.45 L 427.61 656.21 L 427.20 657.07 L 424.05 660.20 L 423.61 660.40 L 421.57 660.40 L 420.61 661.21 L 419.83 661.36 L 419.42 661.66 L 419.20 662.06 L 419.23 662.57 L 418.49 663.93 L 416.34 665.29 L 415.34 665.39 L 414.90 665.65 L 415.01 666.65 L 414.79 667.06 L 413.08 667.61 L 411.93 668.82 L 410.71 669.53 L 408.60 671.75 L 406.93 672.91 L 405.78 674.32 L 404.34 675.23 L 402.52 677.30 L 401.41 679.07 L 399.89 680.08 L 397.81 682.14 L 396.70 682.35 L 395.96 682.19 L 394.51 683.41 L 390.59 685.78 L 389.66 686.08 L 387.66 689.21 L 384.47 690.77 L 383.47 691.83 L 383.21 693.45 L 382.80 694.05 L 381.40 695.51 L 380.51 695.97 L 380.06 696.62 L 379.43 696.93 L 377.10 699.35 L 375.76 699.90 L 375.06 700.71 L 372.76 701.32 L 371.35 702.88 L 370.65 703.13 L 369.76 702.93 L 369.09 703.59 L 368.16 703.89 L 366.79 705.00 L 366.09 705.00 L 364.68 705.81 L 363.72 705.91 L 363.09 705.65 L 362.42 706.66 L 360.64 707.62 L 359.90 708.63 L 359.49 708.83 L 359.23 709.54 L 357.64 711.66 L 357.19 712.77 L 355.71 715.04 L 353.56 716.80 L 352.60 718.37 L 351.04 719.43 L 350.52 720.19 L 349.37 720.69 L 347.59 722.10 L 347.22 723.26 L 345.96 724.02 L 345.82 724.73 L 344.93 726.19 L 343.41 727.35 L 341.89 728.91 L 339.40 732.34 L 338.70 732.60 L 337.00 733.76 L 336.33 735.42 L 334.51 737.84 L 333.14 740.72 L 331.03 744.00 L 330.62 744.25 L 328.99 746.42 L 328.80 747.43 L 328.40 748.09 L 326.73 750.00 L 323.28 752.58 L 321.65 754.75 L 320.13 755.85 L 317.98 759.29 L 316.46 760.40 L 314.65 763.17 L 313.28 764.53 L 311.61 767.81 L 309.76 770.59 L 309.24 771.95 L 307.68 773.87 L 305.90 777.05 L 304.86 777.85 L 304.49 778.61 L 301.31 782.80 L 295.71 788.04 L 293.89 790.72 L 293.08 792.48 L 291.30 794.60 L 290.59 795.96 L 289.30 796.57 L 287.67 798.08 L 286.52 798.18 L 285.37 799.29 L 283.18 802.67 L 283.11 803.08 L 281.85 804.54 L 280.74 806.41 L 279.40 807.32 L 278.51 808.28 L 271.58 816.60 L 267.65 820.99 L 266.28 823.01 L 264.91 826.74 L 263.54 830.93 L 262.80 833.96 L 262.80 834.86 L 261.87 838.29 L 259.91 842.38 L 258.94 844.90 L 258.17 846.22 L 257.72 846.37 L 254.94 848.74 L 253.57 851.21 L 251.57 852.67 L 250.75 853.63 L 250.38 853.73 L 248.79 856.31 L 246.19 858.17 L 245.23 859.74 L 242.78 861.50 L 239.30 863.17 L 237.89 862.92 L 237.52 862.61 L 236.78 862.46 L 236.04 862.01 L 235.22 861.00 L 234.30 860.80 L 234.00 861.25 L 234.41 861.86 L 233.85 862.76 L 233.37 862.76 L 232.85 862.36 L 231.96 862.36 L 231.15 861.81 L 230.85 860.85 L 229.89 859.48 L 229.67 858.53 L 228.85 857.37 L 228.37 857.01 L 226.81 856.91 L 224.74 859.13 L 220.66 865.29 L 219.73 867.76 L 219.25 870.18 L 218.18 873.31 L 216.32 877.29 L 215.58 878.30 L 214.47 881.23 L 213.88 883.85 L 213.62 886.73 L 212.51 889.20 L 212.32 890.16 L 211.10 892.48 L 210.99 894.35 L 210.17 895.20" fill="none" stroke="#A63A22" stroke-width="2.6" stroke-linejoin="round" stroke-linecap="round" stroke-dasharray="none"/>
<g stroke="#A63A22" stroke-width="2.2" fill="none" marker-end="url(#a)">
<line x1="213.3" y1="890.3" x2="214.2" y2="880.3"/>
<line x1="218.4" y1="871.2" x2="222.0" y2="861.8"/>
<line x1="225.8" y1="859.7" x2="226.5" y2="849.8"/>
<line x1="223.3" y1="851.6" x2="225.7" y2="841.9"/>
<line x1="225.7" y1="842.3" x2="229.4" y2="833.0"/>
<line x1="228.3" y1="834.7" x2="232.3" y2="825.6"/>
</g>
<g>
<circle cx="210.2" cy="895.2" r="6.5" fill="#FBF8F1" stroke="#23201A" stroke-width="1.8"/>
<circle cx="210.2" cy="895.2" r="2.4" fill="#A63A22"/>
<text x="224.2" y="891.2" text-anchor="start" font-size="14" fill="#23201A">Big Sandy Trailhead</text>
<text x="224.2" y="905.2" text-anchor="start" font-size="11" fill="#6B5F4A" font-family="ui-monospace, Menlo, monospace">9,096 ft</text>
<circle cx="124.6" cy="475.8" r="6.5" fill="#FBF8F1" stroke="#23201A" stroke-width="1.8"/>
<circle cx="124.6" cy="475.8" r="2.4" fill="#A63A22"/>
<text x="138.6" y="479.8" text-anchor="start" font-size="14" fill="#23201A">Marms Lake</text>
<text x="138.6" y="493.8" text-anchor="start" font-size="11" fill="#6B5F4A" font-family="ui-monospace, Menlo, monospace">9,910 ft</text>
<circle cx="127.7" cy="272.5" r="6.5" fill="#FBF8F1" stroke="#23201A" stroke-width="1.8"/>
<circle cx="127.7" cy="272.5" r="2.4" fill="#A63A22"/>
<text x="127.7" y="252.5" text-anchor="middle" font-size="14" fill="#23201A">Skull Lake</text>
<text x="127.7" y="266.5" text-anchor="middle" font-size="11" fill="#6B5F4A" font-family="ui-monospace, Menlo, monospace">10,327 ft</text>
<circle cx="246.2" cy="231.1" r="6.5" fill="#FBF8F1" stroke="#23201A" stroke-width="1.8"/>
<circle cx="246.2" cy="231.1" r="2.4" fill="#A63A22"/>
<text x="246.2" y="205.1" text-anchor="middle" font-size="14" fill="#23201A">Washakie Pass</text>
<text x="246.2" y="219.1" text-anchor="middle" font-size="11" fill="#6B5F4A" font-family="ui-monospace, Menlo, monospace">11,593 ft</text>
<circle cx="510.7" cy="163.1" r="6.5" fill="#FBF8F1" stroke="#23201A" stroke-width="1.8"/>
<circle cx="510.7" cy="163.1" r="2.4" fill="#A63A22"/>
<text x="496.7" y="167.1" text-anchor="end" font-size="14" fill="#23201A">Little Valentine Lake</text>
<text x="496.7" y="181.1" text-anchor="end" font-size="11" fill="#6B5F4A" font-family="ui-monospace, Menlo, monospace">11,030 ft</text>
<circle cx="532.7" cy="330.0" r="6.5" fill="#FBF8F1" stroke="#23201A" stroke-width="1.8"/>
<circle cx="532.7" cy="330.0" r="2.4" fill="#A63A22"/>
<text x="548.7" y="324.0" text-anchor="start" font-size="14" fill="#23201A">Lizard Head Plateau</text>
<text x="548.7" y="338.0" text-anchor="start" font-size="11" fill="#6B5F4A" font-family="ui-monospace, Menlo, monospace">11,863 ft</text>
<circle cx="430.8" cy="443.8" r="6.5" fill="#FBF8F1" stroke="#23201A" stroke-width="1.8"/>
<circle cx="430.8" cy="443.8" r="2.4" fill="#A63A22"/>
<text x="415.8" y="447.8" text-anchor="end" font-size="14" fill="#23201A">Lonesome Lake / Cirque</text>
<text x="415.8" y="461.8" text-anchor="end" font-size="11" fill="#6B5F4A" font-family="ui-monospace, Menlo, monospace">10,162 ft</text>
<circle cx="431.4" cy="487.0" r="6.5" fill="#FBF8F1" stroke="#23201A" stroke-width="1.8"/>
<circle cx="431.4" cy="487.0" r="2.4" fill="#A63A22"/>
<text x="416.4" y="489.0" text-anchor="end" font-size="14" fill="#23201A">Jackass Pass</text>
<text x="416.4" y="503.0" text-anchor="end" font-size="11" fill="#6B5F4A" font-family="ui-monospace, Menlo, monospace">10,790 ft</text>
</g>
<g transform="translate(578 118)">
<path d="M0 -26 L5 4 L0 -3 L-5 4 Z" fill="#23201A"/>
<text y="22" text-anchor="middle" font-size="13" fill="#23201A" letter-spacing="1">N</text>
</g>
<g transform="translate(374 894)">
<rect x="0" y="0" width="113.6" height="6" fill="#23201A"/>
<rect x="113.6" y="0" width="113.6" height="6" fill="#FBF8F1" stroke="#23201A" stroke-width="1"/>
<text x="0" y="20" font-size="10" fill="#6B5F4A" font-family="ui-monospace, Menlo, monospace">0</text>
<text x="227.3" y="20" font-size="10" fill="#6B5F4A" text-anchor="end" font-family="ui-monospace, Menlo, monospace">5 km</text>
<rect x="0" y="26" width="109.7" height="6" fill="#A63A22"/>
<rect x="109.7" y="26" width="109.7" height="6" fill="#FBF8F1" stroke="#A63A22" stroke-width="1"/>
<text x="219.4" y="46" font-size="10" fill="#6B5F4A" text-anchor="end" font-family="ui-monospace, Menlo, monospace">3 mi</text>
</g>
<g transform="translate(86 98)">
<text font-size="21" fill="#23201A">Washakie Pass &#8594; Cirque of the Towers</text>
<text y="20" font-size="12" fill="#6B5F4A" font-family="ui-monospace, Menlo, monospace" letter-spacing="1">36.2 MI LOOP &#183; 6,610 FT GAIN &#183; WIND RIVER RANGE, WY</text>
</g>
<text x="86" y="136" font-size="10" fill="#A8987A" font-family="ui-monospace, Menlo, monospace">RECORDED GPX TRACK &#183; 8,424 POINTS &#183; REFERENCE ONLY</text>
</svg>